<?xml version="1.0" encoding="UTF-8"?>
<svg id="color" xmlns="http://www.w3.org/2000/svg" width="94" height="157" viewBox="0 0 94 157">
  <defs>
    <style>
      .cls-1, .cls-2, .cls-3, .cls-4 {
        stroke-linecap: round;
      }

      .cls-1, .cls-2, .cls-3, .cls-4, .cls-5 {
        stroke-width: .75px;
      }

      .cls-1, .cls-2, .cls-3, .cls-4, .cls-6 {
        stroke-linejoin: round;
      }

      .cls-1, .cls-2, .cls-3, .cls-5 {
        stroke: #ccc;
      }

      .cls-1, .cls-5 {
        fill: gray;
      }

      .cls-2, .cls-7 {
        fill: #666;
      }

      .cls-8 {
        fill: #fff;
      }

      .cls-3 {
        fill: #4d4d4d;
      }

      .cls-4 {
        fill: none;
        stroke: lime;
      }

      .cls-9 {
        fill: #c1272d;
      }

      .cls-10 {
        fill: #555;
      }

      .cls-5 {
        stroke-miterlimit: 10;
      }

      .cls-6 {
        stroke: gray;
        stroke-linecap: square;
        stroke-width: 1.5px;
      }

      .cls-11 {
        fill: #ccc;
      }

      .cls-12 {
        fill: #b3b3b3;
      }

      .cls-13 {
        fill: #e6e6e6;
      }
    </style>
  </defs>
  <path class="cls-7" d="M0,5.7v145.6c0,3.15,2.55,5.7,5.69,5.7h82.62c3.14,0,5.69-2.55,5.69-5.7V5.7c0-3.15-2.55-5.7-5.69-5.7H5.69C2.55,0,0,2.55,0,5.7Z"/>
  <rect class="cls-3" x="9.51" y="47.73" width="74.98" height="2.24"/>
  <rect class="cls-1" x="9.51" y="35.98" width="74.98" height="11.75"/>
  <rect class="cls-2" x="13.99" y="33.18" width="17.35" height="2.8"/>
  <circle class="cls-5" cx="79.83" cy="60.55" r="5.6"/>
  <path class="cls-4" d="M78.39,58.89c-.94.8-1.06,2.21-.27,3.15.8.94,2.21,1.06,3.15.27.94-.8,1.06-2.21.27-3.15-.08-.1-.17-.19-.27-.27"/>
  <path class="cls-4" d="M79.83,58.31v2.31"/>
  <g>
    <path d="M78,149c-.28,0-.5-.22-.5-.5v-6c0-.28.22-.5.5-.5h2.5v-1.5c0-.28.22-.5.5-.5h3c.28,0,.5.22.5.5v1.5h2.5c.28,0,.5.22.5.5v6c0,.28-.22.5-.5.5h-9Z"/>
    <path class="cls-12" d="M84,140.5v2h3v6h-9v-6h3v-2h3M84,139.5h-3c-.55,0-1,.45-1,1v1h-2c-.55,0-1,.45-1,1v6c0,.55.45,1,1,1h9c.55,0,1-.45,1-1v-6c0-.55-.45-1-1-1h-2v-1c0-.55-.45-1-1-1h0Z"/>
  </g>
  <g>
    <path class="cls-13" d="M35.15,23.45c.72-1.99,1.41-3.88,2.09-5.77.34-.94.69-1.87,1.01-2.82.4-1.2-.07-1.83-1.33-1.74-2.35.16-3.72,1.65-4.56,3.65-.85,2.01-1.52,4.1-2.25,6.17-.14.39-.32.53-.74.53-1.56-.03-3.11-.01-4.76-.01.44-1.24.86-2.4,1.27-3.56,1.12-3.1,2.26-6.19,3.36-9.3.18-.52.44-.64.95-.59,1.41.16,2.62.61,3.25,2.09.41-.22.82-.45,1.23-.67,2.15-1.11,4.4-1.73,6.84-1.32,2.25.38,3.19,2.01,2.42,4.16-1.04,2.9-2.09,5.79-3.15,8.68-.08.2-.35.47-.54.47-1.65.04-3.29.02-5.07.02Z"/>
    <path class="cls-13" d="M60.4,10.49c0,.13.01.15,0,.17-.53,1.75-.53,1.7-2.33,1.51-1.31-.14-2.64-.17-3.96-.19-.47,0-.95.11-1.4.23-.64.18-1.14.56-1.25,1.27-.11.7.42,1.02.9,1.29,1.19.67,2.44,1.23,3.61,1.93,1.28.77,1.65,2.08.91,3.37-.38.67-.98,1.28-1.61,1.73-1.35.96-2.9,1.45-4.56,1.57-2.59.18-5.16.06-7.71-.39-.12-.02-.24-.07-.4-.12.22-.61.44-1.19.62-1.7,1.79.11,3.52.24,5.25.31.53.02,1.08-.06,1.61-.17.33-.07.66-.23.94-.42.77-.55.8-1.41.03-1.94-.69-.48-1.46-.84-2.2-1.25-.49-.27-1.02-.49-1.5-.78-1.78-1.07-2.05-2.88-.63-4.43.95-1.03,2.19-1.62,3.51-2.02,2.11-.64,4.29-.54,6.46-.41,1.25.07,2.49.28,3.71.42Z"/>
    <path class="cls-13" d="M57.8,23.45c1.01-2.8,2.04-5.46,2.93-8.18.36-1.11.88-1.68,2.09-1.71,1.29-.02,2.58-.21,3.99-.34-.37,1.02-.69,1.91-1.01,2.8-.83,2.3-1.67,4.6-2.49,6.9-.14.38-.31.54-.74.53-1.56-.03-3.11-.01-4.77-.01Z"/>
    <path class="cls-13" d="M68,9.87c-.27.77-.44,1.32-.66,1.85-.04.1-.22.21-.34.22-1.72.15-3.44.29-5.19.43.18-.48.35-1.01.56-1.52.06-.14.2-.32.32-.34,1.7-.22,3.41-.42,5.3-.65Z"/>
  </g>
  <g>
    <path class="cls-9" d="M5.51,10.5c-.41-1.09.29-1.71,1.37-2.26,2.27-1.16,4.57-2.18,7.08-2.7.25-.05.53-.05.78,0,2.79.64,5.4,1.74,7.84,3.24.19.12.42.39.41.6-.01,3.88-.58,7.65-2.31,11.17-1.3,2.65-3.14,4.81-5.87,6.11-.34.16-.62.17-.97,0-3.28-1.54-5.34-4.17-6.65-7.46-1.08-2.73-1.55-5.58-1.69-8.71ZM10.24,11.39c-1.29,1.32-1.66,1.93-1.59,2.63.16-.12.31-.24.52-.41-.37,1.04-.84,1.97-.61,3.09.12-.1.18-.16.2-.17.4.62.8,1.24,1.2,1.86.05-.02.11-.04.16-.06-1.11-1.82-1.03-3.63.15-5.31,1.27-1.82,3.16-1.89,4.98-1.54.32-.27.55-.47.76-.65-.14.32-.42.66-.34.86.16.42.55.56,1.05.39.47-.15.97-.14,1.4.2-.06.11-.12.2-.13.23.3.1.58.2.91.32.28-.24.39-.56.03-.92-.1.09-.18.16-.26.22,0-.06.02-.11.03-.17-.47-.21-.93-.41-1.4-.62.44-.38,1.71-.23,2.02.26.08-.3.15-.56.25-.93-.23-.08-.55-.13-.8-.29-.31-.2-.77-.2-.9-.71-.04-.15-.45-.24-.71-.3-.4-.1-.87-.04-1.2-.24-.69-.41-1.31-.95-1.97-1.43l-.07.04c.58.63,1.16,1.27,1.83,2-.36-.2-.61-.34-.73-.41-.87.23-1.64.44-2.52.67.27.06.42.09.57.12-1.23.2-2.39.53-3.47,1.47.29-.08.42-.12.63-.18ZM16.96,16.75l.1-.19c.29-.02.57-.05.86-.06.93-.03,1.29.38,1.17,1.32-.29,2.23-1.88,3.73-4.11,3.86-1.37.08-2.06-.46-2.24-1.82-.07-.56-.08-1.13-.08-1.7,0-.48-.28-.77-.75-.71-.49.06-.88.22-.98.79-.05.3-.21.57-.27.73.22.27.6.56.56.71-.22.68.24.9.59,1.32.44.52.91.84,1.51,1.16.45.24.76.45,1.25.3.13-.04.31,0,.45.04.45.15.8,0,1.17-.26.39-.27.82-.5,1.26-.66.44-.15.71-.36.83-.84.11-.44.35-.84.53-1.26.17-.38.35-.75.5-1.13.09-.23.11-.49.2-.72.31-.76-.2-1.5-1.02-1.48-.25,0-.5.05-.75.07-.78.06-1.59.21-1.95-.85-.05.08-.11.15-.16.23.35.37.7.74,1.07,1.12-.58.32-.89-.12-1.3-.43.47.86,1.35,1.16,2.19.81-.21-.12-.43-.24-.66-.37ZM12.2,11.85c-2.78,1.32-3.09,4.67-1.53,6.86.04-.96.51-1.45,1.49-1.45-.65-.68-1.19-1.28-1.29-2.14.37.7.81,1.32,1.61,1.58-.56-.53-1.07-1.08-1.25-1.99,1.7.58,3.27.73,4.76-.21-2.55.59-3.37.55-3.97-.28.87-.13,1.72-.21,2.55-.4,1.07-.24,1.8-.75,2.12-1.36-1.9,1.34-3.97,1.64-4.95.71-.14.11-.29.21-.44.32-.06-.04-.11-.08-.17-.13.33-.48.67-.96,1.06-1.53ZM13.89,19.33c-.03-.37-.06-.73-.09-1.13-.36.18-.65.28-.36.71.07.1-.12.38-.23.66-.15-.24-.21-.34-.27-.44l-.1.04c.05.33.09.67.16,1.11.87-.18,1.69-.35,2.51-.52-.01-.09-.03-.17-.04-.26-.51.09-1.02.17-1.5.25.36-.43.68-.82,1.02-1.23-.87-.32-.6.85-1.11.8ZM7.24,11.09c-.05.07-.1.13-.16.2.56.51,1.11,1.02,1.69,1.55.21-.29.39-.53.57-.77-.4-.03-.45-.36-.22-.5.56-.35.22-.55,0-.79-.18.31-.35.61-.54.96-.06-.4-.12-.76-.17-1.13-.11.02-.21.04-.32.06.07.45.13.89.21,1.39-.37-.33-.72-.64-1.07-.96ZM12.54,14.37c1.07.58,3.49-.01,4.09-.83-.58.19-1.25.49-1.95.63-.7.14-1.42.14-2.13.2ZM16.31,14.9c.32.18.63.36.94.54,0,.06-.01.11-.02.17-.25.1-.51.19-.93.36.4.07.81.2.84.14.24-.49.62-.17.94-.18-.38-.76-.97-1.1-1.78-1.02ZM11.65,15.03c.45.88,1.84,1.36,2.73.96-1.06-.03-2-.19-2.73-.96ZM10.07,20.22s.07.07.11.1c.25-.12.53-.22.75-.38.09-.07.07-.28.1-.43-.15,0-.36-.08-.43,0-.21.21-.36.47-.53.72ZM12.53,22.98s.07.04.1.06c.17-.11.37-.2.51-.35.09-.09.08-.27.11-.42-.16.03-.38.01-.46.11-.13.16-.18.4-.26.6ZM13.48,8.4c.67.92.79.99,1.16.68-.39-.23-.77-.46-1.16-.68ZM11.08,21.86s.08.07.12.1c.22-.11.46-.19.66-.33.07-.05.06-.22.08-.34-.12-.02-.28-.09-.34-.04-.2.18-.35.4-.53.61Z"/>
    <path class="cls-8" d="M10.24,11.39c-.21.06-.34.1-.63.18,1.08-.94,2.23-1.27,3.47-1.47-.15-.03-.3-.07-.57-.12.88-.23,1.64-.44,2.52-.67.12.07.37.21.73.41-.67-.73-1.25-1.36-1.83-2l.07-.04c.65.48,1.27,1.02,1.97,1.43.33.2.8.14,1.2.24.26.06.67.15.71.3.13.5.59.5.9.71.24.16.56.21.8.29-.1.37-.17.64-.25.93-.31-.49-1.58-.64-2.02-.26.47.21.94.41,1.4.62,0,.06-.02.11-.03.17.08-.07.16-.14.26-.22.36.36.25.68-.03.92-.33-.11-.61-.21-.91-.32.02-.03.07-.12.13-.23-.43-.34-.94-.36-1.4-.2-.5.17-.89.03-1.05-.39-.08-.2.21-.54.34-.86-.21.18-.44.38-.76.65-1.82-.34-3.71-.27-4.98,1.54-1.18,1.68-1.26,3.49-.15,5.31-.05.02-.11.04-.16.06-.4-.62-.79-1.23-1.2-1.86-.02.01-.08.07-.2.17-.24-1.12.24-2.05.61-3.09-.21.17-.36.28-.52.41-.07-.7.3-1.3,1.59-2.63Z"/>
    <path class="cls-8" d="M16.96,16.75c.23.13.45.26.66.37-.84.34-1.72.05-2.19-.81.4.31.72.74,1.3.43-.37-.39-.72-.76-1.07-1.12.05-.08.11-.15.16-.23.36,1.06,1.17.91,1.95.85.25-.02.5-.06.75-.07.83-.03,1.33.71,1.02,1.48-.09.23-.11.49-.2.72-.15.38-.33.76-.5,1.13-.18.42-.42.82-.53,1.26-.12.48-.39.69-.83.84-.44.15-.87.39-1.26.66-.37.26-.72.41-1.17.26-.14-.05-.32-.08-.45-.04-.49.15-.81-.06-1.25-.3-.6-.32-1.07-.64-1.51-1.16-.35-.42-.81-.64-.59-1.32.05-.15-.33-.44-.56-.71.06-.16.22-.44.27-.73.1-.57.49-.74.98-.79.47-.05.75.24.75.71,0,.57,0,1.14.08,1.7.18,1.36.88,1.9,2.24,1.82,2.24-.14,3.83-1.63,4.11-3.86.12-.94-.24-1.34-1.17-1.32-.29,0-.57.04-.86.06l-.1.19ZM12.09,18.5c-.25-.49-.54-.4-.76-.15-.11.13-.16.43-.08.57.17.29.66.23.96-.01-.21-.06-.48-.15-.75-.23.02-.06.03-.12.05-.18h.58Z"/>
    <path class="cls-8" d="M12.2,11.85c-.39.56-.72,1.05-1.06,1.53.06.04.11.08.17.13.15-.11.29-.21.44-.32.98.93,3.04.63,4.95-.71-.32.61-1.05,1.12-2.12,1.36-.83.18-1.68.27-2.55.4.6.83,1.42.87,3.97.28-1.49.94-3.05.78-4.76.21.18.92.69,1.47,1.25,1.99-.8-.26-1.24-.88-1.61-1.58.1.85.64,1.45,1.29,2.14-.98,0-1.44.49-1.49,1.45-1.56-2.19-1.24-5.55,1.53-6.86Z"/>
    <path class="cls-8" d="M13.89,19.33c.5.04.24-1.12,1.11-.8-.34.41-.66.8-1.02,1.23.48-.08.99-.17,1.5-.25.01.09.03.17.04.26-.82.17-1.64.34-2.51.52-.06-.44-.11-.77-.16-1.11l.1-.04c.06.1.12.2.27.44.1-.28.3-.56.23-.66-.29-.43,0-.53.36-.71.03.41.06.77.09,1.13Z"/>
    <path class="cls-8" d="M7.24,11.09c.35.32.7.63,1.07.96-.07-.5-.14-.94-.21-1.39.11-.02.21-.04.32-.06.06.36.11.73.17,1.13.2-.35.37-.64.54-.96.22.24.55.44,0,.79-.23.15-.18.47.22.5-.18.24-.36.48-.57.77-.57-.53-1.13-1.04-1.69-1.55.05-.07.1-.13.16-.2Z"/>
    <path class="cls-8" d="M12.54,14.37c.71-.06,1.44-.06,2.13-.2.7-.15,1.37-.44,1.95-.63-.6.82-3.01,1.42-4.09.83Z"/>
    <path class="cls-8" d="M16.31,14.9c.81-.08,1.39.26,1.78,1.02-.32,0-.69-.32-.94.18-.03.06-.44-.07-.84-.14.42-.16.67-.26.93-.36,0-.06.01-.11.02-.17-.31-.18-.63-.36-.94-.54Z"/>
    <path class="cls-8" d="M11.65,15.03c.73.77,1.67.93,2.73.96-.89.41-2.28-.07-2.73-.96Z"/>
    <path class="cls-8" d="M10.07,20.22c.17-.24.32-.51.53-.72.07-.07.28,0,.43,0-.03.15-.01.36-.1.43-.22.16-.5.26-.75.38-.04-.03-.07-.07-.11-.1Z"/>
    <path class="cls-8" d="M12.53,22.98c.08-.2.13-.44.26-.6.08-.1.3-.08.46-.11-.03.14-.03.32-.11.42-.14.15-.33.24-.51.35-.03-.02-.07-.04-.1-.06Z"/>
    <path class="cls-8" d="M13.48,8.4c.38.23.77.45,1.16.68-.36.31-.49.24-1.16-.68Z"/>
    <path class="cls-8" d="M11.08,21.86c.17-.21.33-.43.53-.61.05-.05.22.02.34.04-.03.12-.01.29-.08.34-.2.14-.44.22-.66.33-.04-.03-.08-.07-.12-.1Z"/>
    <path class="cls-9" d="M12.09,18.5h-.58c-.02.06-.03.12-.05.18.27.08.54.16.75.23-.3.24-.79.3-.96.01-.08-.13-.03-.44.08-.57.22-.25.5-.34.76.15Z"/>
  </g>
  <g>
    <rect x="56.5" y="58.25" width="9.5" height="4.5" rx=".25" ry=".25"/>
    <path class="cls-11" d="M65.75,58.5v4h-9v-4h9M65.75,58h-9c-.28,0-.5.22-.5.5v4c0,.28.22.5.5.5h9c.28,0,.5-.22.5-.5v-4c0-.28-.22-.5-.5-.5h0Z"/>
  </g>
  <g>
    <rect x="43.75" y="58.25" width="9.5" height="4.5" rx=".25" ry=".25"/>
    <path class="cls-11" d="M53,58.5v4h-9v-4h9M53,58h-9c-.28,0-.5.22-.5.5v4c0,.28.22.5.5.5h9c.28,0,.5-.22.5-.5v-4c0-.28-.22-.5-.5-.5h0Z"/>
  </g>
  <path class="cls-6" d="M45.5,61.25h6"/>
  <path class="cls-6" d="M58.25,61.25h6"/>
  <rect class="cls-10" x="14" y="74.5" width="66" height="58" rx="6.69" ry="6.69"/>
  <g id="Fan">
    <path class="cls-7" d="M21.02,109.01c.15.71.45,1.21,1,1.67,4.44,3.67,10.61,3.43,18.49-.74.51.51,1.07.95,1.7,1.32-5.43,4.87-10.38,6.92-14.85,6.14-1.32-.23-2.23,1.28-1.41,2.34,1.81,2.35,3.88,4.27,6.36,5.9.6.4,1.17.54,1.89.47,5.74-.55,9.92-5.08,12.55-13.6.73,0,1.43-.09,2.13-.26-.4,7.29-2.45,12.23-6.16,14.84-1.09.77-.67,2.48.65,2.65,2.95.38,5.76.28,8.67-.32.71-.15,1.21-.45,1.67-1,3.67-4.44,3.43-10.61-.74-18.49.51-.51.95-1.07,1.32-1.7,4.87,5.43,6.92,10.38,6.14,14.85-.23,1.32,1.28,2.23,2.34,1.41,2.35-1.81,4.27-3.88,5.9-6.36.4-.6.54-1.17.47-1.89-.55-5.74-5.08-9.92-13.6-12.55,0-.73-.09-1.43-.26-2.13,7.29.4,12.23,2.45,14.84,6.16.77,1.09,2.48.67,2.65-.65.38-2.95.28-5.76-.32-8.67-.15-.71-.45-1.21-1-1.67-4.44-3.67-10.61-3.43-18.49.74-.51-.51-1.07-.95-1.7-1.32,5.43-4.87,10.38-6.92,14.85-6.14,1.32.23,2.23-1.28,1.41-2.34-1.81-2.35-3.88-4.27-6.36-5.9-.6-.4-1.17-.54-1.89-.47-5.74.55-9.92,5.08-12.55,13.6-.73,0-1.43.09-2.13.26.4-7.29,2.45-12.23,6.16-14.84,1.09-.77.67-2.48-.65-2.65-2.95-.38-5.76-.28-8.67.32-.71.15-1.21.45-1.67,1-3.67,4.44-3.43,10.61.74,18.49-.51.51-.95,1.07-1.32,1.7-4.87-5.43-6.92-10.38-6.14-14.85.23-1.32-1.28-2.23-2.34-1.41-2.35,1.81-4.27,3.88-5.9,6.36-.4.6-.54,1.17-.47,1.89.55,5.74,5.08,9.92,13.6,12.55,0,.73.09,1.43.26,2.13-7.29-.4-12.23-2.45-14.84-6.16-.77-1.09-2.48-.67-2.65.65-.38,2.95-.28,5.76.32,8.67ZM46.74,96.38c4.05,0,7.33,3.28,7.33,7.33s-3.28,7.33-7.33,7.33-7.33-3.28-7.33-7.33,3.28-7.33,7.33-7.33Z"/>
  </g>
</svg>