<?xml version="1.0" encoding="UTF-8"?>
<svg id="switch_x5F_1" xmlns="http://www.w3.org/2000/svg" viewBox="0 0 1900.5 261.17">
  <defs>
    <style>
      .cls-1 {
        fill: #fff;
      }

      .cls-2 {
        fill: #4d4d4d;
        stroke: #000;
        stroke-miterlimit: 10;
        stroke-width: 3px;
      }

      .cls-3 {
        fill: #ccc;
      }
    </style>
  </defs>
  <g>
    <rect class="cls-3" x="5" y="45.5" width="1891" height="166"/>
    <path d="M1891.5,50v157H9.5V50h1882M1900.5,41H.5v175h1900V41h0Z"/>
  </g>
  <rect y="41" width="60" height="175"/>
  <rect x="1840.5" y="41" width="60" height="175"/>
  <circle class="cls-1" cx="30" cy="125.5" r="12.5"/>
  <circle class="cls-1" cx="30" cy="175.5" r="12.5"/>
  <circle class="cls-1" cx="30" cy="75.5" r="12.5"/>
  <circle class="cls-1" cx="1871" cy="125.5" r="12.5"/>
  <circle class="cls-1" cx="1871" cy="175.5" r="12.5"/>
  <circle class="cls-1" cx="1871" cy="75.5" r="12.5"/>
  <rect class="cls-2" x="1729" y="90.5" width="46" height="28"/>
  <rect class="cls-2" x="1729" y="133.5" width="46" height="28"/>
  <rect class="cls-2" x="1659" y="90.5" width="46" height="28"/>
  <rect class="cls-2" x="1659" y="133.5" width="46" height="28"/>
  <polygon class="cls-2" points="1582.5 95.25 1582.5 120 1550 120 1550 95.25 1558.72 95.25 1558.72 91.5 1573.78 91.5 1573.78 95.25 1582.5 95.25"/>
  <polygon class="cls-2" points="1550 156.25 1550 131.5 1582.5 131.5 1582.5 156.25 1573.78 156.25 1573.78 160 1558.72 160 1558.72 156.25 1550 156.25"/>
  <polygon class="cls-2" points="1542.5 95.25 1542.5 120 1510 120 1510 95.25 1518.72 95.25 1518.72 91.5 1533.78 91.5 1533.78 95.25 1542.5 95.25"/>
  <polygon class="cls-2" points="1510 156.25 1510 131.5 1542.5 131.5 1542.5 156.25 1533.78 156.25 1533.78 160 1518.72 160 1518.72 156.25 1510 156.25"/>
  <polygon class="cls-2" points="1502.5 95.25 1502.5 120 1470 120 1470 95.25 1478.72 95.25 1478.72 91.5 1493.78 91.5 1493.78 95.25 1502.5 95.25"/>
  <polygon class="cls-2" points="1470 156.25 1470 131.5 1502.5 131.5 1502.5 156.25 1493.78 156.25 1493.78 160 1478.72 160 1478.72 156.25 1470 156.25"/>
  <polygon class="cls-2" points="1462.5 95.25 1462.5 120 1430 120 1430 95.25 1438.72 95.25 1438.72 91.5 1453.78 91.5 1453.78 95.25 1462.5 95.25"/>
  <polygon class="cls-2" points="1430 156.25 1430 131.5 1462.5 131.5 1462.5 156.25 1453.78 156.25 1453.78 160 1438.72 160 1438.72 156.25 1430 156.25"/>
  <polygon class="cls-2" points="1422.5 95.25 1422.5 120 1390 120 1390 95.25 1398.72 95.25 1398.72 91.5 1413.78 91.5 1413.78 95.25 1422.5 95.25"/>
  <polygon class="cls-2" points="1390 156.25 1390 131.5 1422.5 131.5 1422.5 156.25 1413.78 156.25 1413.78 160 1398.72 160 1398.72 156.25 1390 156.25"/>
  <polygon class="cls-2" points="1352.5 95.25 1352.5 120 1320 120 1320 95.25 1328.72 95.25 1328.72 91.5 1343.78 91.5 1343.78 95.25 1352.5 95.25"/>
  <polygon class="cls-2" points="1320 156.25 1320 131.5 1352.5 131.5 1352.5 156.25 1343.78 156.25 1343.78 160 1328.72 160 1328.72 156.25 1320 156.25"/>
  <polygon class="cls-2" points="1312.5 95.25 1312.5 120 1280 120 1280 95.25 1288.72 95.25 1288.72 91.5 1303.78 91.5 1303.78 95.25 1312.5 95.25"/>
  <polygon class="cls-2" points="1280 156.25 1280 131.5 1312.5 131.5 1312.5 156.25 1303.78 156.25 1303.78 160 1288.72 160 1288.72 156.25 1280 156.25"/>
  <polygon class="cls-2" points="1272.5 95.25 1272.5 120 1240 120 1240 95.25 1248.72 95.25 1248.72 91.5 1263.78 91.5 1263.78 95.25 1272.5 95.25"/>
  <polygon class="cls-2" points="1240 156.25 1240 131.5 1272.5 131.5 1272.5 156.25 1263.78 156.25 1263.78 160 1248.72 160 1248.72 156.25 1240 156.25"/>
  <polygon class="cls-2" points="1232.5 95.25 1232.5 120 1200 120 1200 95.25 1208.72 95.25 1208.72 91.5 1223.78 91.5 1223.78 95.25 1232.5 95.25"/>
  <polygon class="cls-2" points="1200 156.25 1200 131.5 1232.5 131.5 1232.5 156.25 1223.78 156.25 1223.78 160 1208.72 160 1208.72 156.25 1200 156.25"/>
  <polygon class="cls-2" points="1192.5 95.25 1192.5 120 1160 120 1160 95.25 1168.72 95.25 1168.72 91.5 1183.78 91.5 1183.78 95.25 1192.5 95.25"/>
  <polygon class="cls-2" points="1160 156.25 1160 131.5 1192.5 131.5 1192.5 156.25 1183.78 156.25 1183.78 160 1168.72 160 1168.72 156.25 1160 156.25"/>
  <polygon class="cls-2" points="1122.5 95.25 1122.5 120 1090 120 1090 95.25 1098.72 95.25 1098.72 91.5 1113.78 91.5 1113.78 95.25 1122.5 95.25"/>
  <polygon class="cls-2" points="1090 156.25 1090 131.5 1122.5 131.5 1122.5 156.25 1113.78 156.25 1113.78 160 1098.72 160 1098.72 156.25 1090 156.25"/>
  <polygon class="cls-2" points="1082.5 95.25 1082.5 120 1050 120 1050 95.25 1058.72 95.25 1058.72 91.5 1073.78 91.5 1073.78 95.25 1082.5 95.25"/>
  <polygon class="cls-2" points="1050 156.25 1050 131.5 1082.5 131.5 1082.5 156.25 1073.78 156.25 1073.78 160 1058.72 160 1058.72 156.25 1050 156.25"/>
  <polygon class="cls-2" points="1042.5 95.25 1042.5 120 1010 120 1010 95.25 1018.72 95.25 1018.72 91.5 1033.78 91.5 1033.78 95.25 1042.5 95.25"/>
  <polygon class="cls-2" points="1010 156.25 1010 131.5 1042.5 131.5 1042.5 156.25 1033.78 156.25 1033.78 160 1018.72 160 1018.72 156.25 1010 156.25"/>
  <polygon class="cls-2" points="1002.5 95.25 1002.5 120 970 120 970 95.25 978.72 95.25 978.72 91.5 993.78 91.5 993.78 95.25 1002.5 95.25"/>
  <polygon class="cls-2" points="970 156.25 970 131.5 1002.5 131.5 1002.5 156.25 993.78 156.25 993.78 160 978.72 160 978.72 156.25 970 156.25"/>
  <polygon class="cls-2" points="962.5 95.25 962.5 120 930 120 930 95.25 938.72 95.25 938.72 91.5 953.78 91.5 953.78 95.25 962.5 95.25"/>
  <polygon class="cls-2" points="930 156.25 930 131.5 962.5 131.5 962.5 156.25 953.78 156.25 953.78 160 938.72 160 938.72 156.25 930 156.25"/>
  <polygon class="cls-2" points="892.5 95.25 892.5 120 860 120 860 95.25 868.72 95.25 868.72 91.5 883.78 91.5 883.78 95.25 892.5 95.25"/>
  <polygon class="cls-2" points="860 156.25 860 131.5 892.5 131.5 892.5 156.25 883.78 156.25 883.78 160 868.72 160 868.72 156.25 860 156.25"/>
  <polygon class="cls-2" points="852.5 95.25 852.5 120 820 120 820 95.25 828.72 95.25 828.72 91.5 843.78 91.5 843.78 95.25 852.5 95.25"/>
  <polygon class="cls-2" points="820 156.25 820 131.5 852.5 131.5 852.5 156.25 843.78 156.25 843.78 160 828.72 160 828.72 156.25 820 156.25"/>
  <polygon class="cls-2" points="812.5 95.25 812.5 120 780 120 780 95.25 788.72 95.25 788.72 91.5 803.78 91.5 803.78 95.25 812.5 95.25"/>
  <polygon class="cls-2" points="780 156.25 780 131.5 812.5 131.5 812.5 156.25 803.78 156.25 803.78 160 788.72 160 788.72 156.25 780 156.25"/>
  <polygon class="cls-2" points="772.5 95.25 772.5 120 740 120 740 95.25 748.72 95.25 748.72 91.5 763.78 91.5 763.78 95.25 772.5 95.25"/>
  <polygon class="cls-2" points="740 156.25 740 131.5 772.5 131.5 772.5 156.25 763.78 156.25 763.78 160 748.72 160 748.72 156.25 740 156.25"/>
  <polygon class="cls-2" points="732.5 95.25 732.5 120 700 120 700 95.25 708.72 95.25 708.72 91.5 723.78 91.5 723.78 95.25 732.5 95.25"/>
  <polygon class="cls-2" points="700 156.25 700 131.5 732.5 131.5 732.5 156.25 723.78 156.25 723.78 160 708.72 160 708.72 156.25 700 156.25"/>
  <polygon class="cls-2" points="662.5 95.25 662.5 120 630 120 630 95.25 638.72 95.25 638.72 91.5 653.78 91.5 653.78 95.25 662.5 95.25"/>
  <polygon class="cls-2" points="630 156.25 630 131.5 662.5 131.5 662.5 156.25 653.78 156.25 653.78 160 638.72 160 638.72 156.25 630 156.25"/>
  <polygon class="cls-2" points="622.5 95.25 622.5 120 590 120 590 95.25 598.72 95.25 598.72 91.5 613.78 91.5 613.78 95.25 622.5 95.25"/>
  <polygon class="cls-2" points="590 156.25 590 131.5 622.5 131.5 622.5 156.25 613.78 156.25 613.78 160 598.72 160 598.72 156.25 590 156.25"/>
  <polygon class="cls-2" points="582.5 95.25 582.5 120 550 120 550 95.25 558.72 95.25 558.72 91.5 573.78 91.5 573.78 95.25 582.5 95.25"/>
  <polygon class="cls-2" points="550 156.25 550 131.5 582.5 131.5 582.5 156.25 573.78 156.25 573.78 160 558.72 160 558.72 156.25 550 156.25"/>
  <polygon class="cls-2" points="542.5 95.25 542.5 120 510 120 510 95.25 518.72 95.25 518.72 91.5 533.78 91.5 533.78 95.25 542.5 95.25"/>
  <polygon class="cls-2" points="510 156.25 510 131.5 542.5 131.5 542.5 156.25 533.78 156.25 533.78 160 518.72 160 518.72 156.25 510 156.25"/>
  <polygon class="cls-2" points="502.5 95.25 502.5 120 470 120 470 95.25 478.72 95.25 478.72 91.5 493.78 91.5 493.78 95.25 502.5 95.25"/>
  <polygon class="cls-2" points="470 156.25 470 131.5 502.5 131.5 502.5 156.25 493.78 156.25 493.78 160 478.72 160 478.72 156.25 470 156.25"/>
</svg>