<?xml version="1.0" encoding="UTF-8"?>
<svg id="Calque_2" xmlns="http://www.w3.org/2000/svg" viewBox="0 0 147.13 22">
  <defs>
    <style>
      .cls-1 {
        fill: #4a5e87;
      }

      .cls-2 {
        fill: #3e4e6e;
      }

      .cls-3 {
        fill: #009245;
      }

      .cls-4 {
        fill: #647fb7;
      }

      .cls-5 {
        letter-spacing: .06em;
      }

      .cls-6 {
        fill: #91fa50;
      }

      .cls-7 {
        fill: #b3b3b3;
      }

      .cls-8 {
        fill: #ccc;
        font-family: Bahnschrift, Bahnschrift;
        font-size: 9.46px;
        font-variation-settings: 'wght' 400, 'wdth' 100;
      }
    </style>
  </defs>
  <rect class="cls-4" y="0" width="147" height="22" rx="1" ry="1"/>
  <rect class="cls-2" y="1" width="146" height="21" rx="1" ry="1"/>
  <rect class="cls-1" x="1" y="1" width="145" height="20" rx="1" ry="1"/>
  <circle class="cls-6" cx="46.5" cy="17.5" r=".5"/>
  <circle class="cls-6" cx="59.5" cy="17.5" r=".5"/>
  <circle class="cls-6" cx="72.5" cy="17.5" r=".5"/>
  <circle class="cls-3" cx="85.5" cy="17.5" r=".5"/>
  <circle class="cls-3" cx="98.5" cy="17.5" r=".5"/>
  <circle class="cls-3" cx="111.5" cy="17.5" r=".5"/>
  <circle class="cls-3" cx="124.5" cy="17.5" r=".5"/>
  <circle class="cls-3" cx="137.5" cy="17.5" r=".5"/>
  <text class="cls-8" transform="translate(3.37 13.64)"><tspan class="cls-5" x="0" y="0">P</tspan><tspan x="6.45" y="0">T-Link</tspan></text>
  <g>
    <path d="M42,13.5c-.28,0-.5-.22-.5-.5v-6c0-.28.22-.5.5-.5h2.5v-1.5c0-.28.22-.5.5-.5h3c.28,0,.5.22.5.5v1.5h2.5c.28,0,.5.22.5.5v6c0,.28-.22.5-.5.5h-9Z"/>
    <path class="cls-7" d="M48,5v2h3v6h-9v-6h3v-2h3M48,4h-3c-.55,0-1,.45-1,1v1h-2c-.55,0-1,.45-1,1v6c0,.55.45,1,1,1h9c.55,0,1-.45,1-1v-6c0-.55-.45-1-1-1h-2v-1c0-.55-.45-1-1-1h0Z"/>
  </g>
  <g>
    <path d="M55,13.5c-.28,0-.5-.22-.5-.5v-6c0-.28.22-.5.5-.5h2.5v-1.5c0-.28.22-.5.5-.5h3c.28,0,.5.22.5.5v1.5h2.5c.28,0,.5.22.5.5v6c0,.28-.22.5-.5.5h-9Z"/>
    <path class="cls-7" d="M61,5v2h3v6h-9v-6h3v-2h3M61,4h-3c-.55,0-1,.45-1,1v1h-2c-.55,0-1,.45-1,1v6c0,.55.45,1,1,1h9c.55,0,1-.45,1-1v-6c0-.55-.45-1-1-1h-2v-1c0-.55-.45-1-1-1h0Z"/>
  </g>
  <g>
    <path d="M68,13.5c-.28,0-.5-.22-.5-.5v-6c0-.28.22-.5.5-.5h2.5v-1.5c0-.28.22-.5.5-.5h3c.28,0,.5.22.5.5v1.5h2.5c.28,0,.5.22.5.5v6c0,.28-.22.5-.5.5h-9Z"/>
    <path class="cls-7" d="M74,5v2h3v6h-9v-6h3v-2h3M74,4h-3c-.55,0-1,.45-1,1v1h-2c-.55,0-1,.45-1,1v6c0,.55.45,1,1,1h9c.55,0,1-.45,1-1v-6c0-.55-.45-1-1-1h-2v-1c0-.55-.45-1-1-1h0Z"/>
  </g>
  <g>
    <path d="M81,13.5c-.28,0-.5-.22-.5-.5v-6c0-.28.22-.5.5-.5h2.5v-1.5c0-.28.22-.5.5-.5h3c.28,0,.5.22.5.5v1.5h2.5c.28,0,.5.22.5.5v6c0,.28-.22.5-.5.5h-9Z"/>
    <path class="cls-7" d="M87,5v2h3v6h-9v-6h3v-2h3M87,4h-3c-.55,0-1,.45-1,1v1h-2c-.55,0-1,.45-1,1v6c0,.55.45,1,1,1h9c.55,0,1-.45,1-1v-6c0-.55-.45-1-1-1h-2v-1c0-.55-.45-1-1-1h0Z"/>
  </g>
  <g>
    <path d="M94,13.5c-.28,0-.5-.22-.5-.5v-6c0-.28.22-.5.5-.5h2.5v-1.5c0-.28.22-.5.5-.5h3c.28,0,.5.22.5.5v1.5h2.5c.28,0,.5.22.5.5v6c0,.28-.22.5-.5.5h-9Z"/>
    <path class="cls-7" d="M100,5v2h3v6h-9v-6h3v-2h3M100,4h-3c-.55,0-1,.45-1,1v1h-2c-.55,0-1,.45-1,1v6c0,.55.45,1,1,1h9c.55,0,1-.45,1-1v-6c0-.55-.45-1-1-1h-2v-1c0-.55-.45-1-1-1h0Z"/>
  </g>
  <g>
    <path d="M107,13.5c-.28,0-.5-.22-.5-.5v-6c0-.28.22-.5.5-.5h2.5v-1.5c0-.28.22-.5.5-.5h3c.28,0,.5.22.5.5v1.5h2.5c.28,0,.5.22.5.5v6c0,.28-.22.5-.5.5h-9Z"/>
    <path class="cls-7" d="M113,5v2h3v6h-9v-6h3v-2h3M113,4h-3c-.55,0-1,.45-1,1v1h-2c-.55,0-1,.45-1,1v6c0,.55.45,1,1,1h9c.55,0,1-.45,1-1v-6c0-.55-.45-1-1-1h-2v-1c0-.55-.45-1-1-1h0Z"/>
  </g>
  <g>
    <path d="M120,13.5c-.28,0-.5-.22-.5-.5v-6c0-.28.22-.5.5-.5h2.5v-1.5c0-.28.22-.5.5-.5h3c.28,0,.5.22.5.5v1.5h2.5c.28,0,.5.22.5.5v6c0,.28-.22.5-.5.5h-9Z"/>
    <path class="cls-7" d="M126,5v2h3v6h-9v-6h3v-2h3M126,4h-3c-.55,0-1,.45-1,1v1h-2c-.55,0-1,.45-1,1v6c0,.55.45,1,1,1h9c.55,0,1-.45,1-1v-6c0-.55-.45-1-1-1h-2v-1c0-.55-.45-1-1-1h0Z"/>
  </g>
  <g>
    <path d="M133,13.5c-.28,0-.5-.22-.5-.5v-6c0-.28.22-.5.5-.5h2.5v-1.5c0-.28.22-.5.5-.5h3c.28,0,.5.22.5.5v1.5h2.5c.28,0,.5.22.5.5v6c0,.28-.22.5-.5.5h-9Z"/>
    <path class="cls-7" d="M139,5v2h3v6h-9v-6h3v-2h3M139,4h-3c-.55,0-1,.45-1,1v1h-2c-.55,0-1,.45-1,1v6c0,.55.45,1,1,1h9c.55,0,1-.45,1-1v-6c0-.55-.45-1-1-1h-2v-1c0-.55-.45-1-1-1h0Z"/>
  </g>
</svg>