<?xml version="1.0" encoding="UTF-8"?>
<svg id="color" xmlns="http://www.w3.org/2000/svg" width="147" height="22" viewBox="0 0 147 22">
  <defs>
    <style>
      .cls-1 {
        fill: #4a5e87;
      }

      .cls-2 {
        fill: #3e4e6e;
      }

      .cls-3 {
        fill: #009245;
      }

      .cls-4 {
        fill: #647fb7;
      }

      .cls-5 {
        fill: #91fa50;
      }

      .cls-6 {
        fill: #ccc;
      }

      .cls-7 {
        fill: #b3b3b3;
      }
    </style>
  </defs>
  <rect class="cls-4" x="0" y="0" width="147" height="22" rx="1" ry="1"/>
  <rect class="cls-2" x="0" y="1" width="146" height="21" rx="1" ry="1"/>
  <rect class="cls-1" x="1" y="1" width="145" height="20" rx="1" ry="1"/>
  <circle class="cls-5" cx="46.5" cy="17.5" r=".5"/>
  <circle class="cls-5" cx="59.5" cy="17.5" r=".5"/>
  <circle class="cls-5" cx="72.5" cy="17.5" r=".5"/>
  <circle class="cls-3" cx="85.5" cy="17.5" r=".5"/>
  <circle class="cls-3" cx="98.5" cy="17.5" r=".5"/>
  <circle class="cls-3" cx="111.5" cy="17.5" r=".5"/>
  <circle class="cls-3" cx="124.5" cy="17.5" r=".5"/>
  <circle class="cls-3" cx="137.5" cy="17.5" r=".5"/>
  <g>
    <path class="cls-6" d="M4.2,13.64v-6.72h.94v6.72h-.94ZM4.68,11.04v-.9h2.15c.31,0,.56-.11.74-.32s.28-.49.28-.84-.09-.63-.28-.85-.43-.32-.74-.32h-2.15v-.9h2.12c.41,0,.76.09,1.06.26.3.17.54.41.7.72s.25.67.25,1.09-.08.77-.25,1.08-.4.55-.7.72c-.3.17-.66.25-1.06.25h-2.12Z"/>
    <path class="cls-6" d="M9.72,7.82v-.9h4.74v.9h-4.74ZM11.62,13.64v-6.17h.94v6.17h-.94Z"/>
    <path class="cls-6" d="M15.11,10.79h3.11v.9h-3.11v-.9Z"/>
    <path class="cls-6" d="M19.74,13.64v-6.72h.94v6.72h-.94ZM20.21,13.64v-.9h3.84v.9h-3.84Z"/>
    <path class="cls-6" d="M25.07,7.87v-.94h.94v.94h-.94ZM25.07,13.64v-4.8h.94v4.8h-.94Z"/>
    <path class="cls-6" d="M27.45,13.64v-4.8h.94v4.8h-.94ZM30.36,13.64v-2.91c0-.34-.09-.6-.26-.79-.17-.19-.42-.28-.74-.28s-.55.08-.71.25c-.17.16-.25.39-.25.69l-.1-.92c.15-.29.34-.51.58-.67.24-.16.5-.24.79-.24.52,0,.92.17,1.21.51s.43.82.43,1.44v2.91h-.94Z"/>
    <path class="cls-6" d="M32.73,13.64v-6.72h.94v6.72h-.94ZM33.08,12.94l.06-1.12,2.47-2.98h1.11l-3.64,4.09ZM35.93,13.64l-1.67-2.77.61-.63,2.09,3.4h-1.03Z"/>
  </g>
  <g>
    <path d="M42,13.5c-.28,0-.5-.22-.5-.5v-6c0-.28.22-.5.5-.5h2.5v-1.5c0-.28.22-.5.5-.5h3c.28,0,.5.22.5.5v1.5h2.5c.28,0,.5.22.5.5v6c0,.28-.22.5-.5.5h-9Z"/>
    <path class="cls-7" d="M48,5v2h3v6h-9v-6h3v-2h3M48,4h-3c-.55,0-1,.45-1,1v1h-2c-.55,0-1,.45-1,1v6c0,.55.45,1,1,1h9c.55,0,1-.45,1-1v-6c0-.55-.45-1-1-1h-2v-1c0-.55-.45-1-1-1h0Z"/>
  </g>
  <g>
    <path d="M55,13.5c-.28,0-.5-.22-.5-.5v-6c0-.28.22-.5.5-.5h2.5v-1.5c0-.28.22-.5.5-.5h3c.28,0,.5.22.5.5v1.5h2.5c.28,0,.5.22.5.5v6c0,.28-.22.5-.5.5h-9Z"/>
    <path class="cls-7" d="M61,5v2h3v6h-9v-6h3v-2h3M61,4h-3c-.55,0-1,.45-1,1v1h-2c-.55,0-1,.45-1,1v6c0,.55.45,1,1,1h9c.55,0,1-.45,1-1v-6c0-.55-.45-1-1-1h-2v-1c0-.55-.45-1-1-1h0Z"/>
  </g>
  <g>
    <path d="M68,13.5c-.28,0-.5-.22-.5-.5v-6c0-.28.22-.5.5-.5h2.5v-1.5c0-.28.22-.5.5-.5h3c.28,0,.5.22.5.5v1.5h2.5c.28,0,.5.22.5.5v6c0,.28-.22.5-.5.5h-9Z"/>
    <path class="cls-7" d="M74,5v2h3v6h-9v-6h3v-2h3M74,4h-3c-.55,0-1,.45-1,1v1h-2c-.55,0-1,.45-1,1v6c0,.55.45,1,1,1h9c.55,0,1-.45,1-1v-6c0-.55-.45-1-1-1h-2v-1c0-.55-.45-1-1-1h0Z"/>
  </g>
  <g>
    <path d="M81,13.5c-.28,0-.5-.22-.5-.5v-6c0-.28.22-.5.5-.5h2.5v-1.5c0-.28.22-.5.5-.5h3c.28,0,.5.22.5.5v1.5h2.5c.28,0,.5.22.5.5v6c0,.28-.22.5-.5.5h-9Z"/>
    <path class="cls-7" d="M87,5v2h3v6h-9v-6h3v-2h3M87,4h-3c-.55,0-1,.45-1,1v1h-2c-.55,0-1,.45-1,1v6c0,.55.45,1,1,1h9c.55,0,1-.45,1-1v-6c0-.55-.45-1-1-1h-2v-1c0-.55-.45-1-1-1h0Z"/>
  </g>
  <g>
    <path d="M94,13.5c-.28,0-.5-.22-.5-.5v-6c0-.28.22-.5.5-.5h2.5v-1.5c0-.28.22-.5.5-.5h3c.28,0,.5.22.5.5v1.5h2.5c.28,0,.5.22.5.5v6c0,.28-.22.5-.5.5h-9Z"/>
    <path class="cls-7" d="M100,5v2h3v6h-9v-6h3v-2h3M100,4h-3c-.55,0-1,.45-1,1v1h-2c-.55,0-1,.45-1,1v6c0,.55.45,1,1,1h9c.55,0,1-.45,1-1v-6c0-.55-.45-1-1-1h-2v-1c0-.55-.45-1-1-1h0Z"/>
  </g>
  <g>
    <path d="M107,13.5c-.28,0-.5-.22-.5-.5v-6c0-.28.22-.5.5-.5h2.5v-1.5c0-.28.22-.5.5-.5h3c.28,0,.5.22.5.5v1.5h2.5c.28,0,.5.22.5.5v6c0,.28-.22.5-.5.5h-9Z"/>
    <path class="cls-7" d="M113,5v2h3v6h-9v-6h3v-2h3M113,4h-3c-.55,0-1,.45-1,1v1h-2c-.55,0-1,.45-1,1v6c0,.55.45,1,1,1h9c.55,0,1-.45,1-1v-6c0-.55-.45-1-1-1h-2v-1c0-.55-.45-1-1-1h0Z"/>
  </g>
  <g>
    <path d="M120,13.5c-.28,0-.5-.22-.5-.5v-6c0-.28.22-.5.5-.5h2.5v-1.5c0-.28.22-.5.5-.5h3c.28,0,.5.22.5.5v1.5h2.5c.28,0,.5.22.5.5v6c0,.28-.22.5-.5.5h-9Z"/>
    <path class="cls-7" d="M126,5v2h3v6h-9v-6h3v-2h3M126,4h-3c-.55,0-1,.45-1,1v1h-2c-.55,0-1,.45-1,1v6c0,.55.45,1,1,1h9c.55,0,1-.45,1-1v-6c0-.55-.45-1-1-1h-2v-1c0-.55-.45-1-1-1h0Z"/>
  </g>
  <g>
    <path d="M133,13.5c-.28,0-.5-.22-.5-.5v-6c0-.28.22-.5.5-.5h2.5v-1.5c0-.28.22-.5.5-.5h3c.28,0,.5.22.5.5v1.5h2.5c.28,0,.5.22.5.5v6c0,.28-.22.5-.5.5h-9Z"/>
    <path class="cls-7" d="M139,5v2h3v6h-9v-6h3v-2h3M139,4h-3c-.55,0-1,.45-1,1v1h-2c-.55,0-1,.45-1,1v6c0,.55.45,1,1,1h9c.55,0,1-.45,1-1v-6c0-.55-.45-1-1-1h-2v-1c0-.55-.45-1-1-1h0Z"/>
  </g>
</svg>